<svg width="938" height="146" viewBox="0 0 938 146" fill="none" xmlns="http://www.w3.org/2000/svg">
<rect y="36.2629" width="36.2629" height="36.2629" fill="#FFCC00"/>
<rect y="108.789" width="36.2629" height="36.2629" fill="#FFCC00"/>
<rect x="36.2629" width="36.2629" height="36.2629" fill="#FFCC00"/>
<rect x="36.2629" y="72.5258" width="36.2629" height="36.2629" fill="#FFCC00"/>
<path d="M899.32 120.876V43.5154H879.979V24.1752H938V43.5154H918.66V120.876H899.32Z" fill="#FFCC00"/>
<path d="M763.938 120.876V24.1752H783.278V62.8556H802.619V82.1958H821.959V101.536H841.299V120.876H821.959V101.536H802.619V82.1958H783.278V120.876H763.938ZM821.959 43.5154V24.1752H841.299V43.5154H821.959ZM802.619 62.8556V43.5154H821.959V62.8556H802.619Z" fill="#FFCC00"/>
<path d="M667.237 120.876V24.1752H725.258V43.5154H686.577V62.8556H725.258V82.1958H686.577V101.536H725.258V120.876H667.237Z" fill="#FFCC00"/>
<path d="M570.536 120.876V24.1752H589.876V101.536H628.557V120.876H570.536Z" fill="#FFCC00"/>
<path d="M473.835 120.876V24.1752H531.856V43.5154H493.175V62.8556H531.856V82.1958H493.175V101.536H531.856V120.876H473.835Z" fill="#FFCC00"/>
<path d="M377.134 120.876V101.536H357.794V43.5154H377.134V24.1752H415.814V43.5154H435.155V101.536H415.814V120.876H377.134ZM377.134 100.762H415.814V44.289H377.134V100.762Z" fill="#8CBF40"/>
<path d="M299.773 62.8556V43.5154H261.093V24.1752H299.773V43.5154H319.113V62.8556H299.773ZM261.093 120.876V101.536H241.753V43.5154H261.093V101.536H299.773V120.876H261.093ZM299.773 101.536V82.1958H319.113V101.536H299.773Z" fill="#8CBF40"/>
<path d="M145.052 120.876V24.1753H203.072V43.5155H164.392V62.8557H203.072V82.1959H164.392V101.536H203.072V120.876H145.052Z" fill="#8CBF40"/>
</svg>
